# File created by Blade
# Date/Time:  Wed Apr 08 17:35:25 2015
# Frame Rate: 120.000 fps
#------------------------------------------------------
:FULLY-SPECIFIED
:DEGREES
1295
root 8.898331 37.319735 4.115721 144.260175 -70.817494 -105.842154
Spine -36.616394 2.417486 12.563633
Head 35.770392 -4.009271 13.097026
LeftShoulder -9.187522 24.044946 13.367113
LeftArm 22.932823 29.721801 -74.116647
LeftForeArm 19.313594 -0.000000 27.738485
LeftHand -12.913898 -0.000000 -10.632080
LeftHandThumb1 -26.253704 0.000000 33.147579
RightShoulder -39.801773 -52.363460 20.227014
RightArm 56.200066 -21.635784 45.314308
RightForeArm 6.811061 -0.000000 23.187512
RightHand -1.255438 -0.000000 22.118112
RightHandThumb1 -24.326973 -0.000000 -32.862282
LeftUpLeg -50.514990 19.417233 -3.083658
LeftLeg 22.300875 -0.000000 -0.000000
LeftFoot -12.916859 16.659404 -4.773930
LeftToeBase 3.868690 -0.000000 -0.000000
RightUpLeg -127.213471 -10.209289 25.217916
RightLeg 98.979531 -0.000000 -0.000000
RightFoot -13.686165 -29.399732 11.315540
RightToeBase 11.264314 -0.000000 -0.000000
1296
root 8.890742 37.315855 4.113347 144.255252 -70.838124 -105.893467
Spine -36.575710 2.384896 12.547769
Head 35.833511 -3.944192 13.163725
LeftShoulder -9.190521 24.053021 13.362403
LeftArm 22.899910 29.669815 -74.126844
LeftForeArm 19.264776 -0.000000 27.589705
LeftHand -12.917639 -0.000000 -10.528146
LeftHandThumb1 -26.253704 0.000000 33.147579
RightShoulder -39.752099 -52.348129 20.205851
RightArm 56.155509 -21.622972 45.420719
RightForeArm 7.065928 -0.000000 23.224913
RightHand -1.166012 -0.000000 21.621737
RightHandThumb1 -24.326973 -0.000000 -32.862282
LeftUpLeg -50.427662 19.389451 -3.058551
LeftLeg 22.292006 -0.000000 -0.000000
LeftFoot -12.932150 16.671374 -4.775282
LeftToeBase 3.819311 -0.000000 -0.000000
RightUpLeg -127.012637 -10.472238 24.901196
RightLeg 98.431111 -0.000000 -0.000000
RightFoot -14.095704 -29.499805 11.505859
RightToeBase 10.857923 -0.000000 -0.000000
1297
root 8.881563 37.310857 4.110045 144.166902 -70.873421 -105.889227
Spine -36.508194 2.321714 12.547529
Head 35.902462 -3.884127 13.210446
LeftShoulder -9.197327 24.062890 13.349070
LeftArm 22.873756 29.631774 -74.120799
LeftForeArm 19.250316 -0.000000 27.446186
LeftHand -12.937036 0.000000 -10.438707
LeftHandThumb1 -26.253704 0.000000 33.147579
RightShoulder -39.730655 -52.327784 20.197776
RightArm 56.141468 -21.607887 45.505521
RightForeArm 7.257591 -0.000000 23.240758
RightHand -1.107624 -0.000000 21.229805
RightHandThumb1 -24.326973 -0.000000 -32.862282
LeftUpLeg -50.317990 19.345533 -3.024184
LeftLeg 22.300814 -0.000000 -0.000000
LeftFoot -12.958025 16.678687 -4.767328
LeftToeBase 3.804110 -0.000000 -0.000000
RightUpLeg -126.792094 -10.754948 24.616147
RightLeg 97.860757 -0.000000 -0.000000
RightFoot -14.399880 -29.498793 11.755657
RightToeBase 10.562876 -0.000000 -0.000000
1298
root 8.875014 37.305559 4.107816 144.200795 -70.892784 -105.999775
Spine -36.441527 2.286208 12.528208
Head 35.967230 -3.819645 13.261027
LeftShoulder -9.208536 24.072852 13.340166
LeftArm 22.853597 29.604906 -74.105753
LeftForeArm 19.222033 -0.000000 27.305941
LeftHand -13.007648 -0.000000 -10.347852
LeftHandThumb1 -26.253704 0.000000 33.147579
RightShoulder -39.692804 -52.324213 20.164018
RightArm 56.134956 -21.588987 45.674784
RightForeArm 7.492031 0.000000 23.206093
RightHand -1.132186 -0.000000 20.692002
RightHandThumb1 -24.326973 -0.000000 -32.862282
LeftUpLeg -50.206611 19.292639 -2.985077
LeftLeg 22.294784 -0.000000 -0.000000
LeftFoot -12.971127 16.742768 -4.780271
LeftToeBase 3.673978 -0.000000 -0.000000
RightUpLeg -126.550533 -10.996104 24.301335
RightLeg 97.281337 -0.000000 -0.000000
RightFoot -14.815920 -29.105827 12.357421
RightToeBase 10.427402 -0.000000 -0.000000
1299
root 8.867489 37.298782 4.107267 144.240824 -70.947991 -106.113550
Spine -36.385557 2.236742 12.469082
Head 36.015305 -3.788633 13.325783
LeftShoulder -9.188040 24.067833 13.361033
LeftArm 22.806137 29.570841 -74.124856
LeftForeArm 19.187558 0.000000 27.172479
LeftHand -13.063463 -0.000000 -10.252583
LeftHandThumb1 -26.253704 0.000000 33.147579
RightShoulder -39.718600 -52.297660 20.200701
RightArm 56.126295 -21.579206 45.727803
RightForeArm 7.500492 -0.000000 23.221952
RightHand -1.040735 -0.000000 20.309729
RightHandThumb1 -24.326973 -0.000000 -32.862282
LeftUpLeg -50.096041 19.203487 -2.969446
LeftLeg 22.286809 -0.000000 -0.000000
LeftFoot -12.978225 16.825993 -4.750905
LeftToeBase 3.593576 -0.000000 -0.000000
RightUpLeg -126.325450 -11.266309 23.968431
RightLeg 96.704376 -0.000000 -0.000000
RightFoot -15.144358 -28.316512 13.157902
RightToeBase 10.434658 -0.000000 -0.000000
1300
root 8.859409 37.293961 4.104481 144.212931 -70.977175 -106.171994
Spine -36.313657 2.195900 12.444130
Head 36.080336 -3.763372 13.371028
LeftShoulder -9.178974 24.068629 13.367489
LeftArm 22.782035 29.545109 -74.121691
LeftForeArm 19.157751 0.000000 27.024435
LeftHand -13.080784 -0.000000 -10.199742
LeftHandThumb1 -26.253704 0.000000 33.147579
RightShoulder -39.742464 -52.271504 20.234634
RightArm 56.100143 -21.555044 45.817621
RightForeArm 7.526130 -0.000000 23.224815
RightHand -0.890965 -0.000000 19.902501
RightHandThumb1 -24.326973 -0.000000 -32.862282
LeftUpLeg -49.971052 19.140731 -2.922696
LeftLeg 22.280496 -0.000000 -0.000000
LeftFoot -13.029979 16.963060 -4.591717
LeftToeBase 3.836030 -0.000000 -0.000000
RightUpLeg -126.092980 -11.469369 23.760195
RightLeg 96.117947 -0.000000 -0.000000
RightFoot -15.127641 -27.395804 13.500354
RightToeBase 11.144829 -0.000000 -0.000000
